<svg class="icon" viewBox="0 0 1024 1024" xmlns="http://www.w3.org/2000/svg" width="30" height="30"><defs><style>@font-face{font-family:&quot;Didact Gothic&quot;;font-style:normal;font-weight:700;src:url(chrome-extension://__MSG_@@extension_id__/assets/fonts/DidactGothic-Regular.woff)}</style></defs><path d="M512 32C251.429 32 32 251.429 32 512s219.429 480 480 480 480-219.429 480-480S772.571 32 512 32zm205.714 617.143c20.572 20.571 20.572 48 0 61.714-20.571 20.572-48 20.572-61.714 0L518.857 573.714l-144 144c-20.571 20.572-48 20.572-68.571 0s-20.572-54.857 0-68.571l144-144L313.143 368c-20.572-13.714-20.572-41.143 0-61.714 20.571-20.572 48-20.572 61.714 0L512 443.429l144-144c20.571-20.572 48-20.572 68.571 0 20.572 20.571 20.572 48 0 68.571l-144 144 137.143 137.143z" fill="#f55"/></svg>