<svg xmlns="http://www.w3.org/2000/svg" viewBox="0 0 542.13 659"><g data-name="图层 2"><path d="M382.5 482.5c-4 31-7.54 80.63-12.82 132 19.43-.22 102.91-2.26 169.32-21.48 152-44 102-255 48-284-46-31-109.58-48.86-180-46.68 0-.15 0-.29-.07-.44 1.15 59.6-13.71 137.6-24.43 220.6Z" transform="translate(-211.5 -149.5)" style="fill:none"/><path d="M158.18 464.98c5.28-51.35 8.82-101 12.82-132 10.72-83 25.58-161 24.39-220.62-8.45-53.5-19.1-77.33-19.1-77.33h.66C162.28 12.72 137.5 0 98 0-32 0-1.18 157 16 331c8 81 19 328 82 328 13.32 0 23.82-14.5 32.25-37.66L154 465s1.5.01 4.18-.02Z"/><path d="M443 81C333.49 20.4 209.67 34.8 177 35.05h-.66s10.65 23.83 19.1 77.33c0 .15.05.29.07.44 70.41-2.18 133.99 15.68 179.99 46.68 54 29 104 240-48 284-66.41 19.22-149.89 21.26-169.32 21.48H154l-23.75 156.36-.26 1.71s169.75-7.45 258-35C565.5 532.5 597.5 166.5 443 81Z"/></g></svg>