<svg class="icon" viewBox="0 0 1024 1024" xmlns="http://www.w3.org/2000/svg" width="30" height="30"><defs><style>@font-face{font-family:&quot;Didact Gothic&quot;;font-style:normal;font-weight:700;src:url(chrome-extension://__MSG_@@extension_id__/assets/fonts/DidactGothic-Regular.woff)}</style></defs><path d="M518.656 12.8C246.272 12.8 25.6 233.472 25.6 505.856S246.272 998.4 518.656 998.4 1011.2 777.728 1011.2 505.856 790.528 12.8 518.656 12.8zm240.64 370.688L483.328 712.192c-15.36 18.432-43.008 20.992-60.928 5.12l-4.096-3.072a40.925 40.925 0 0 1-6.656-6.656L289.792 588.8c-18.432-15.36-20.992-43.008-5.12-60.928l3.072-4.096c15.36-18.432 43.008-20.992 60.928-5.12l97.28 94.72 242.688-289.28c15.36-18.432 43.008-20.992 60.928-5.12l4.096 3.072c18.944 15.872 20.992 43.52 5.632 61.44z" fill="#5f5"/></svg>