<svg class="icon" viewBox="0 0 1024 1024" xmlns="http://www.w3.org/2000/svg" width="30" height="30"><defs><style>@font-face{font-family:&quot;Didact Gothic&quot;;font-style:normal;font-weight:700;src:url(chrome-extension://__MSG_@@extension_id__/assets/fonts/DidactGothic-Regular.woff)}</style></defs><path d="M512 64C264.32 64 64 264.32 64 512s200.32 448 448 448 448-200.32 448-448S759.68 64 512 64zm0 704c-35.2 0-64-28.8-64-64s28.8-64 64-64 64 28.8 64 64-28.8 64-64 64zm64-256c0 35.2-28.8 64-64 64s-64-28.8-64-64V320c0-35.2 28.8-64 64-64s64 28.8 64 64v192z" fill="#f4ea2a"/></svg>