<svg xmlns="http://www.w3.org/2000/svg" viewBox="0 0 192 192"><path style="fill:none" d="M0 0h192v192H0z" data-name="图层 2"/><path fill="rgba(120,120,120,0.06)" d="M180.82 164a11.35 11.35 0 0 1-2.07 8.91 11.68 11.68 0 0 1-7.83 4.78l-19.8 3.14a11.33 11.33 0 0 1-8.83-2.07 11.6 11.6 0 0 1-4.86-7.83L120.6 64.34a12.32 12.32 0 0 1 .24-4.71 13 13 0 0 1 1.9-4.12 10.91 10.91 0 0 1 3.38-3.13 14.09 14.09 0 0 1 4.54-1.74l19.63-3.13a11.2 11.2 0 0 1 8.91 2.14 12 12 0 0 1 4.8 7.92Zm-83-117.14a11.83 11.83 0 0 1 11.88 11.88v110.2a11.85 11.85 0 0 1-11.88 11.88H80.67a11.85 11.85 0 0 1-11.88-11.88V58.73a13.49 13.49 0 0 1 2.64-8.42q2.64-3.47 7.76-3.46Zm0 83.15a3.38 3.38 0 0 0 2.8-1.57 6.07 6.07 0 0 0 1.16-3.71 6 6 0 0 0-1.16-3.79 3.45 3.45 0 0 0-2.8-1.49H80.67a3.45 3.45 0 0 0-2.8 1.49 6 6 0 0 0-1.16 3.79 6.07 6.07 0 0 0 1.16 3.71 3.38 3.38 0 0 0 2.8 1.57Zm0-21a3.38 3.38 0 0 0 2.8-1.57 6.36 6.36 0 0 0 1.16-3.88 6 6 0 0 0-1.16-3.79 3.45 3.45 0 0 0-2.8-1.49H80.67a3.45 3.45 0 0 0-2.8 1.49 6 6 0 0 0-1.16 3.79 6.36 6.36 0 0 0 1.16 3.88 3.38 3.38 0 0 0 2.8 1.57ZM46 46.85a11.72 11.72 0 0 1 8.5 3.46 11.32 11.32 0 0 1 3.55 8.42v110.21a11.3 11.3 0 0 1-3.55 8.41 11.73 11.73 0 0 1-8.5 3.47H28.86a11.73 11.73 0 0 1-8.49-3.47 11.3 11.3 0 0 1-3.55-8.41V58.73a11.32 11.32 0 0 1 3.55-8.42 11.72 11.72 0 0 1 8.49-3.46ZM29.52 88.09a3.6 3.6 0 0 0-3 1.49 6 6 0 0 0-1.16 3.79 6.12 6.12 0 0 0 1.16 3.72 3.54 3.54 0 0 0 3 1.56h15.84a3.33 3.33 0 0 0 2.89-1.56 6.41 6.41 0 0 0 1.07-3.72 6.27 6.27 0 0 0-1.07-3.79 3.39 3.39 0 0 0-2.89-1.49ZM46 139.9a3.38 3.38 0 0 0 2.89-1.48 6.85 6.85 0 0 0 0-7.35 3.46 3.46 0 0 0-2.89-1.4H29.52a3.68 3.68 0 0 0-3 1.4 6.4 6.4 0 0 0 0 7.35 3.59 3.59 0 0 0 3 1.48Zm0-20.29a3.39 3.39 0 0 0 2.89-1.49 7.26 7.26 0 0 0 0-7.59 3.38 3.38 0 0 0-2.89-1.48H29.52a3.59 3.59 0 0 0-3 1.48 6.79 6.79 0 0 0 0 7.59 3.6 3.6 0 0 0 3 1.49Z" data-name="图层 1"/></svg>