<svg xmlns="http://www.w3.org/2000/svg" viewBox="0 0 192 192"><path style="fill:none" d="M0 0h192v192H0z" data-name="图层 2"/><path fill="rgba(120,120,120,0.06)" d="m176.54 85.22-16-16V46.61a15.18 15.18 0 0 0-15.19-15.18h-22.62l-16-16a15.24 15.24 0 0 0-21.49 0l-16 16H46.62a15.18 15.18 0 0 0-15.19 15.18v22.61l-16 16a15.23 15.23 0 0 0 0 21.48l16 16v22.62a15.19 15.19 0 0 0 15.19 15.18h22.62l16 16a15.24 15.24 0 0 0 21.49 0l16-16h22.62a15.19 15.19 0 0 0 15.19-15.18v-22.63l16-16a15.17 15.17 0 0 0 0-21.45Zm-41.45-4.36-49.32 41.73a7.63 7.63 0 0 1-4.92 1.8 5.31 5.31 0 0 1-.67 0 7.56 7.56 0 0 1-5.18-2.72L56 98.91a7.59 7.59 0 0 1 11.64-9.73l14.09 16.88 43.51-36.8a7.6 7.6 0 0 1 9.81 11.6Z" data-name="图层 1"/></svg>