<svg xmlns="http://www.w3.org/2000/svg" viewBox="0 0 192 192"><path style="fill:none" d="M0 0h192v192H0z" data-name="图层 2"/><path fill="rgba(120,120,120,0.06)" d="M86.34 179.18c4.74 2.85 8.53 1 8.53-4.74v-66.23c0-5.68-3.79-11.35-8.53-14.2l-54.9-34.07c-4.74-1.89-8.52 0-8.52 4.75v66.25c0 5.68 3.78 11.35 8.52 14.2l54.9 34ZM40 39.13c-4.74 2.85-4.74 6.63 0 9.46l53.91 34.06c4.74 2.85 11.36 2.85 16.1 1L164 56.16c4.74-2.85 4.74-6.63 0-9.46l-56.84-34.06c-3.79-2.85-11.36-2.85-16.1 0L40 39.13Zm70 135.33c0 5.68 3.78 7.57 8.52 4.74l53.94-27.45c4.75-2.85 8.53-8.52 8.53-14.2V71.3c0-5.68-3.78-7.57-8.53-4.74L118.51 94c-4.74 2.85-8.52 8.52-8.52 14.2v66.25Z" data-name="图层 1"/></svg>