<svg xmlns="http://www.w3.org/2000/svg" viewBox="0 0 192 192"><path style="fill:none" d="M0 0h192v192H0z" data-name="图层 2"/><path fill="rgba(120,120,120,0.06)" d="M180.06 133.3c-5.69-49.45-15.75-84.89-47.7-84.89-16.19 0-24.5 16.63-38.94 17.94C78.54 65 70.67 48.41 54.48 48.41c-31.94 0-42 35.44-47.26 84.45C4.16 159.12 6.78 181 23 181c22.76 0 23.63-20.56 39.82-30.19 6.13-3.06 19.69-4.37 31.07-4.81 11.38.44 24.94 1.75 31.07 4.81C141.12 160.43 142 181 164.74 181c15.76.44 17.94-21.44 15.32-47.69Zm-125.14-4.38a22.75 22.75 0 1 1 0-45.5 22.6 22.6 0 0 1 22.75 22.75 22.87 22.87 0 0 1-22.75 22.75Zm102-18.37h-17.99v17.94h-8.75v-17.94h-17.94v-8.76h17.94v-17.5h8.75v17.5h17.94v8.76Z" data-name="图层 1"/></svg>