<svg xmlns="http://www.w3.org/2000/svg" viewBox="0 0 192 192"><path style="fill:none" d="M0 0h192v192H0z" data-name="图层 2"/><path fill="rgba(120,120,120,0.06)" d="m179.55 108.48-67.2-67.2a26.38 26.38 0 0 0-37.26 0L7.9 108.48a5 5 0 0 0 3.49 8.45h22.42v37.72A26.38 26.38 0 0 0 60.16 181h67.13a26.39 26.39 0 0 0 26.35-26.35v-37.72h22.41a4.95 4.95 0 0 0 3.5-8.45ZM118 162.09a3.71 3.71 0 0 1-7.42 0v-16.27a16.88 16.88 0 0 0-33.75 0v16.27a3.71 3.71 0 1 1-7.42 0v-16.27a24.3 24.3 0 0 1 48.59 0Z" data-name="图层 1"/></svg>