<svg xmlns="http://www.w3.org/2000/svg" viewBox="0 0 192 192"><path style="fill:none" d="M0 0h192v192H0z" data-name="图层 2"/><g data-name="图层 1" fill="rgba(120,120,120,0.06)"><path d="M158.46 54.75h-26.41v-6.6a22.06 22.06 0 0 0-22-22H86.39a22.06 22.06 0 0 0-22 22v6.6H38a22.07 22.07 0 0 0-22 22v18.7h164.46V76.76a22.07 22.07 0 0 0-22-22Zm-83.07-6.6a11 11 0 0 1 11-11h23.66a11 11 0 0 1 11 11v1.1H75.39Zm23.1 71.52c7.16-.55 12.66-6.06 12.66-13.21H84.74v.54a13.42 13.42 0 0 0 13.75 12.67Z"/><path d="M99 130.12h-1.1A24.2 24.2 0 0 1 73.74 107v-.55H16v51.71a22.07 22.07 0 0 0 22 22h120.46a22.07 22.07 0 0 0 22-22v-51.7h-58.31c-.55 12.66-10.45 23.11-23.11 23.66Z"/></g></svg>