<svg xmlns="http://www.w3.org/2000/svg" viewBox="0 0 192 192"><path style="fill:none" d="M0 0h192v192H0z" data-name="图层 2"/><g data-name="图层 1" fill="rgba(120,120,120,0.06)"><path d="m112.29 22.57.62 14.91h-.2c-1.41-1.18-3.79-1.09-5.8-1.66-3.92-1.09-8.62-1.2-13.67-1.24v-.21c.8-1 .9-2.45 1.45-3.72.91-2.12 2-4.52 2.9-6.63.63-1.47.37-3.48 2.48-3.52.83.62 2.12.31 3.32.62a45.69 45.69 0 0 0 8.9 1.45ZM82.47 34.79c-3.45 0-6.79 1.35-9.53 2.28-1.64.55-3 .59-4.55 1.24-1 .43-3.81 2.11-4.76 1.66-.66-.95.1-3-.21-4.35-.59-2.52-.6-7.39-.62-10.15 4.13-.81 8-2.92 12.22-3.52.36 1.48 1.55 2.57 2.27 3.73 1.17 1.86 1.93 3.72 3.11 5.59.69 1.08 1.8 2.02 2.07 3.52ZM132.59 30.44c1 .24 1.53.95 2.27 1.45 1.9 1.27 3.77 2.5 5.6 3.73.95.64 2.61 1 2.89 2.27-1 1-1.24 2.75-1.86 4.15-1 2.35-2.48 4.89-3.52 7.24-.4.91-.4 1.67-1 2.28v-.2c-1.49-1-3-3.42-4.56-4.56a51.4 51.4 0 0 0-10.77-6.42v-.21c2.35-1.46 4-4 6.21-5.59 1.41-1.07 3.8-2.66 4.74-4.14ZM43.33 36.24h.83c.77 1.11 2.21 1.69 3.31 2.48 1.56 1.11 3 2.62 4.56 3.73.94.67 2.42 1.18 2.9 2.28h-.21c-.78 1.06-2.24 1.7-3.31 2.48l-.83 1a55.42 55.42 0 0 0-6.42 5.38c-1 1-2.89 3.73-4.14 4.15a10.11 10.11 0 0 0-1.45-2.49c-1.07-1.73-1.63-3.65-2.69-5.38-.88-1.43-2.21-3-2.7-4.77M90.13 38.1c20.94-.41 38.39 6.95 46.6 19.26a33.27 33.27 0 0 1 3.1 5c2.17 5 2.47 13.39.42 18.85a36.52 36.52 0 0 1-4.76 8.69c-2.05 2.8-5 5-7.87 7a80.34 80.34 0 0 1-25.89 12.21c-7.76 2.15-18 .57-22.78-2.9-2.75-2-5-7.4-3.31-12.42a25.14 25.14 0 0 1 8.9-12.22c1.32-1 2.39-2.59 4.14-3.11v.42c-1.24.83-1.85 2.47-2.69 3.73-1.7 2.56-5.85 8.68-3.73 13.46.8 1.79 3 3.27 5 3.93 3.91 1.32 11 0 14.09-1 9.57-3.28 18.14-8.28 22.57-16.78a17.29 17.29 0 0 0 2.07-8.9V71c-1.9-7.34-6.37-10.74-13.25-13.05-1.39-.46-2.62-.24-4.15-.62a27.61 27.61 0 0 0-10.35-.21h-2.1c-2.13.54-4.65.42-6.84 1-12 3.41-20.18 8.58-26.09 18C60.9 79.9 59.46 84.3 58 88.84c-1.89 6-1.61 16.59.21 22.36.86 2.73 1.21 5 2.28 7.46a43.34 43.34 0 0 0 17.39 19.47c3.12 1.92 7.12 3.11 10.77 4.34l1.66.21a49.27 49.27 0 0 0 15.56 2.32h6c3.61-.9 7.42-.74 10.77-1.86a79.87 79.87 0 0 0 17.36-7.91c2.39-1.52 4.56-3.49 6.84-5.18 1.61-1.2 2.62-3.24 4.34-4.35v.41c-1.33 1.34-1.87 3.55-2.9 5.18-1.83 2.91-4 5.72-6 8.49-.66.9-1.82 1.6-2.49 2.49-6.35 8.56-17.53 15.32-28.78 19-8.2 2.72-23 2.83-31.69.41l-3.72-.62a112.72 112.72 0 0 1-11.81-3.93 57.6 57.6 0 0 1-23.19-18.85c-.9-1.28-1.43-2.58-2.28-3.93a41.66 41.66 0 0 1-2.9-4.76c-1.3-3-2.12-5.73-3.31-8.91-3.08-8.21-5.45-23.74-2.49-34 6.17-21.26 18.92-36.13 38.11-44.32 4.37-1.76 9.12-2.36 14.12-3.64l5.38-.41c.9-.01 2.36.18 2.9-.21Z"/><path d="M145 54.67c13.49-.27 25.06 1.86 31.69 8.49 2.37 2.37 5 6.54 3.72 11.8-.35 1.42 0 2.43-.41 3.73a33.69 33.69 0 0 1-3.11 7.46c-9.42 15.29-26.66 23.56-44.11 30.85-2.5 1-5 1.39-7.66 2.28-8.47 2.84-25.72 5.92-36.45 2.9-1.09-.31-1.81-.07-2.9-.41a36.5 36.5 0 0 1-9.73-4.35c-.6-.42-1.08-1.23-1.66-1.66-3.72-2.76-7.67-9.11-5.59-16.15a27 27 0 0 1 2.49-6.22c.68-1.11 1.67-2.11 2.28-3.31h.2v.62c-.6.7-.52 1.67-.83 2.69a18.81 18.81 0 0 0 .42 11.6c2 4.55 5.3 6.89 10.15 8.49 1.35.45 2.45.26 3.93.62a20.51 20.51 0 0 0 7 .42c2.52-.59 5.65.2 8.08-.42 4.43-1.13 9-1.56 13-3.1 14.66-5.55 29.15-13.42 37.69-25.06 2.82-3.86 8.32-10.38 6.41-17.4-.33-1.25-.24-2.12-.82-3.1-2.48-4.17-6.88-6.56-11.6-8.49l-6.83-1.66a22.32 22.32 0 0 0 4.64-.62ZM20.34 62.33a15.3 15.3 0 0 1 4.15 1c2.25.71 4.54 1 6.62 1.65 1.07.34 2.84.13 3.32 1-1.2 1.16-1.58 2.88-2.49 4.35a42.11 42.11 0 0 0-5.18 13h-.2v-.2c-.72-.44-1.22-1.19-1.87-1.66-2.06-1.51-3.94-3-6-4.56l-.62-.82c-1-.71-2.25-1.07-2.49-2.49.81-.87 1-2.34 1.45-3.52 1.07-2.36 2.62-5.02 3.31-7.75ZM24.69 93.39c0 3.23-.56 8.22.21 11.39l1 6.84a44.94 44.94 0 0 1-9.74-1.45c-1.34-.34-3.16.1-4.14-.62-.45-.61-.23-2.54-.21-3.52-.54-.78 0-2.59-.2-3.73a38.3 38.3 0 0 1-.42-6.21 15.24 15.24 0 0 0 3.94-.83l2.07-.21a50.05 50.05 0 0 1 7.49-1.66ZM28 121.77c1.1.93 1.81 4.28 2.48 5.79 1.8 4.08 4.26 7.92 6.21 11.81h-.41c-1 .78-2.67.76-3.93 1.24-2.52.95-6.36 2.52-9.12 2.9a74.08 74.08 0 0 0-4.35-7.87c-.79-1.29-1-3-2.07-3.93a10.83 10.83 0 0 1 2.7-2.28l1-1.24c.67-.6 1.55-1.12 2.28-1.66l1.24-1.45a18.32 18.32 0 0 0 3.97-3.31ZM42.3 145.79c1 .72 1.5 2.16 2.48 2.9 2.84 2.15 5.5 4.63 8.49 6.62 1.19.79 4.65 2.16 5.18 3.32h-.21c-.75 1-2.08 1.53-3.1 2.28l-.63.82c-1.6 1.17-3.14 2.16-4.76 3.32-1.12.8-1.9 2.2-3.52 2.48-.93-1.4-2.78-2.32-4.14-3.31-.94-.69-1.75-1.8-2.69-2.49-1.1-.8-3-1.53-3.32-3.1 1-1 1.19-2.59 1.87-3.94 1.45-2.87 2.92-5.93 4.35-8.9ZM140.46 146.62h.41a10.54 10.54 0 0 0 1.25 3.1c1 2.33 1.48 4.51 2.48 6.84a17.06 17.06 0 0 1 1.66 4.14c-2.67 1.27-4.9 3.7-7.25 5.38-1 .73-2.42 1.24-3.11 2.28-2.62-1.27-4.55-3.92-6.83-5.59-1.48-1.09-3.58-2.18-4.56-3.73 3.4-.8 7.71-4.86 10.36-6.83l1.66-1.87a15.48 15.48 0 0 0 3.93-3.72ZM67.77 162.77a22.67 22.67 0 0 1 4.35 1.45c1.18.39 2.12.25 3.31.62a50.69 50.69 0 0 0 12 2.07c-.15 1.45-1.15 2.6-1.66 3.73l-2.48 5.59c-.63 1.42-.45 3.29-2.49 3.31-1-.73-2.77-.44-4.14-.82a61.82 61.82 0 0 0-8.9-1.87ZM102.36 180.37c-.19-1.59-1.31-2.68-1.87-3.93-1.45-3.29-2.81-6.37-4.35-9.53h4.35c.89-.59 4.65-.45 6-.83l7.25-2.07a20.9 20.9 0 0 1 2.9-1.24v2.07c-.66.94.09 3-.21 4.35a40.4 40.4 0 0 0-.42 8.28h-.2v.21c-4.49.08-9.02 2.43-13.45 2.69Z"/></g></svg>