<svg xmlns="http://www.w3.org/2000/svg" viewBox="0 0 192 192"><path style="fill:none" d="M0 0h192v192H0z" data-name="图层 2"/><path fill="rgba(120,120,120,0.06)" d="M36 20.66A19.32 19.32 0 0 0 16.66 40v98.28A19.35 19.35 0 0 0 36 157.62h31.41a9.62 9.62 0 0 1 6.91 2.82L92 178.16a9.64 9.64 0 0 0 13.65 0l17.72-17.72a9.66 9.66 0 0 1 6.85-2.82h31.44A19.34 19.34 0 0 0 181 138.28V40a19.32 19.32 0 0 0-19.32-19.34H36ZM85.19 49a9.06 9.06 0 0 1 9.13-9h9.52a9 9 0 0 1 8.64 9.43l-3.73 57.94a9.09 9.09 0 0 1-9.13 8.53h-1.54a9.07 9.07 0 0 1-9.08-8.52l-3.81-57.93Zm27.33 89.42a13.7 13.7 0 1 1-13.92-13.5h.23a13.59 13.59 0 0 1 13.7 13.46Z" data-name="图层 1"/></svg>