<svg xmlns="http://www.w3.org/2000/svg" viewBox="0 0 192 192"><path style="fill:none" d="M0 0h192v192H0z" data-name="图层 2"/><g data-name="图层 1" fill="rgba(120,120,120,0.06)"><path d="M22.14 156.46c-.91-1.51-.91-3-.61-5.15.31-2.73 1.82-5.76 3.64-9.39a4.64 4.64 0 0 0-1.82-6.67 5 5 0 0 0-7 1.82 35.14 35.14 0 0 0-4.84 12.72 15.78 15.78 0 0 0 1.81 11.82c5.46 9.39 19.7 11.51 39.09 7.57l3.63-.9a61.23 61.23 0 0 1-9.39-8.18c-12.65 1.81-22.09.9-24.51-3.64Zm156.63-90.59A16.31 16.31 0 0 0 170 58.6c-3.64-1.51-7.88-2.12-13-2.12a5 5 0 1 0-.3 10 28 28 0 0 1 9.35 1.52c1.82.91 3.33 1.82 3.94 3 2.72 4.85-.91 13-9.4 23.33a53.18 53.18 0 0 1 2.41 12.14l2.72-2.73c13-15.14 18.49-28.78 13-37.87Z"/><path d="M108.79 135.25c21.21-12.42 38.78-26 49.68-38.78.91-.91 1.52-1.81 2.43-2.72a67.69 67.69 0 1 0-114.22 66c1.21-.3 2.42-.3 3.64-.6 16.36-3.34 37.26-11.52 58.47-23.94Zm-61.2-21.81A48.6 48.6 0 0 1 96.06 65a5.3 5.3 0 0 1 5.15 5.15A5 5 0 0 1 96.06 75a37.22 37.22 0 0 0-27 11.21 37.94 37.94 0 0 0-11.21 27.27 4.79 4.79 0 0 1-4.85 4.81 5 5 0 0 1-5.45-4.85Zm66.65 30.3a1.11 1.11 0 0 1-.91.3C93 155.85 72.74 164 56.07 168a67.64 67.64 0 0 0 107.55-54.53c0-2.42-.3-4.85-.3-7.27-11.81 12.42-28.78 25.75-49.08 37.57ZM129.09 41a9.09 9.09 0 1 0-9.09-9.06c-.31 5.15 3.94 9.06 9.09 9.06Z"/></g></svg>