<svg xmlns="http://www.w3.org/2000/svg" viewBox="0 0 192 192"><path style="fill:none" d="M0 0h192v192H0z" data-name="图层 2"/><path fill="rgba(120,120,120,0.06)" d="M167 43.9a49.51 49.51 0 0 0-70 0l-2.7 2.69-1.91-1.91c-19-19-49.89-20.38-69.51-2.1a49.49 49.49 0 0 0-1.3 71.24l2.75 2.75L84.9 177.1a13.39 13.39 0 0 0 18.89 0L167 113.88a49.51 49.51 0 0 0 0-69.98ZM59.5 63.29A18.11 18.11 0 0 0 48 67.12a17.29 17.29 0 0 0-2.6 24.31 17.9 17.9 0 0 0 1.23 1.37 5.19 5.19 0 0 1 0 7.33l-.65.65a4.32 4.32 0 0 1-6 0c-10.64-10.64-11.58-28-1.32-39A27.48 27.48 0 0 1 58.85 53 5.19 5.19 0 0 1 64 58.14v.62a4.52 4.52 0 0 1-4.5 4.53Z" data-name="图层 1"/></svg>