<svg xmlns="http://www.w3.org/2000/svg" viewBox="0 0 192 192"><path style="fill:none" d="M0 0h192v192H0z" data-name="图层 2"/><path fill="rgba(120,120,120,0.06)" d="M103.44 77.47c48.07-33.14-16-45.25 8.77-71-22.07 3.68-17.84 28.84-13.3 33.45s23.88 11.16 4.53 37.55Zm-23.24 0c39.37-27.14-13.12-36.81 7.18-57.92-18.07 3-14.6 23.62-10.89 27.4s19.56 8.91 3.71 30.52Zm99.43 31.4a19.57 19.57 0 0 0-1.26-3.22c-.11-.25-.23-.49-.35-.73a22.18 22.18 0 0 0-1.78-2.87.87.87 0 0 1-.09-.11 22.61 22.61 0 0 0-2.22-2.48l-.49-.47a23.35 23.35 0 0 0-2.74-2.2 27.4 27.4 0 0 0-3.17-1.79l-.44-.22a29.46 29.46 0 0 0-7.4-2.33h-.29a30.91 30.91 0 0 0-4.12-.43c-.77-4.29-4.46-9-8.91-9H43c-5 0-9.07 5.51-9.07 10.6h-.13s0 1.27.13 3.49v.53c.77 12.49 5.46 53.46 34.13 68.52h53.81c8.2-7.3 14.37-17.14 19.08-24.09a31.19 31.19 0 0 0 3.65.58l.78.08a35 35 0 0 0 3.85.11 36.1 36.1 0 0 0 3.82-.39c.32 0 .64-.1 1-.15a39.54 39.54 0 0 0 3.92-.9c15.79-4.73 25.49-19.28 21.66-32.53ZM47.42 93.57h15.15s-10.75 18.85 11.73 63.49c-28.83-15.38-26.88-63.49-26.88-63.49Zm107.9 38.56a20.81 20.81 0 0 1-3.21.66l-.84.11a21.5 21.5 0 0 1-3 .1c-.22 0-.43-.05-.65-.06-.51-.05-1-.14-1.52-.22a72.48 72.48 0 0 0 9.16-30.83c6.39.77 11.73 4.51 13.38 10.24 2.36 8.16-3.64 17.11-13.32 20ZM18.8 170.05s-1.8 10.34 10.58 10.34h127c10 0 9.37-10.34 9.37-10.34Z" data-name="图层 1"/></svg>