<svg xmlns="http://www.w3.org/2000/svg" viewBox="0 0 192 192"><defs><style>.cls-1{fill:none}</style></defs><path class="cls-1" d="M0 0h192v192H0z" id="图层_2" data-name="图层 2"/><g id="图层_1" data-name="图层 1"><path class="cls-1" d="M85.26 96.9c-1 8-1.94 20.8-3.31 34 5-.06 26.55-.58 43.68-5.54C164.84 114.06 152 59.63 138 52.15c-11.87-8-28.27-12.61-46.45-12a.43.43 0 0 0 0-.11c.31 15.33-3.55 35.45-6.29 56.86Z" transform="translate(0 .07)"/><path fill="rgba(120,120,120,0.06)" d="M82 131c1.37-13.25 2.28-26.06 3.31-34 2.69-21.51 6.55-41.63 6.24-57-2.18-13.8-4.92-20-4.92-20h.16c-3.79-5.72-10.17-9-20.36-9-33.54 0-25.59 40.51-21.15 85.39 2.06 20.89 4.9 84.61 21.15 84.61 3.44 0 6.15-3.75 8.32-9.72L80.88 131H82Z"/><path fill="rgba(120,120,120,0.06)" d="M155.43 31.9C127.16 16.25 95.21 20 86.79 20h-.16s2.74 6.15 4.92 20a.43.43 0 0 1 0 .11c18.18-.56 34.58 4 46.45 12 13.93 7.48 26.82 61.91-12.39 73.26-17.11 5-38.61 5.52-43.61 5.63h-1.07l-6.13 40.33-.07.45s43.79-1.93 66.56-9C187 148.37 195.28 54 155.43 31.9Z"/></g></svg>