<svg xmlns="http://www.w3.org/2000/svg" viewBox="0 0 192 192"><path style="fill:none" d="M0 0h192v192H0z" data-name="图层 2"/><path fill="rgba(120,120,120,0.06)" d="M159.57 16H81.73a51.61 51.61 0 0 0-51.45 51.42v92.13A21.51 21.51 0 0 0 51.72 181h78.07A51.34 51.34 0 0 0 181 129.78V37.45A21.52 21.52 0 0 0 159.57 16Zm-47.84 118.94H67.05a5.63 5.63 0 0 1 0-11.25h44.68a5.63 5.63 0 0 1 0 11.25Zm29.79-31.4H67.05a5.63 5.63 0 0 1 0-11.25h74.47a5.63 5.63 0 0 1 0 11.25Zm0-31.39H67.05a5.62 5.62 0 0 1 0-11.24h74.47a5.61 5.61 0 1 1 .48 11.22 3.68 3.68 0 0 1-.47 0Z" data-name="图层 1"/></svg>