<svg xmlns="http://www.w3.org/2000/svg" viewBox="0 0 192 192"><path style="fill:none" d="M0 0h192v192H0z" data-name="图层 2"/><g data-name="图层 1" fill="rgba(120,120,120,0.06)"><path d="M135 142.76 95.67 23.81a5.51 5.51 0 0 0-7-3.41L14.86 44.81a5.51 5.51 0 0 0-3.59 6.91l39.35 119a5.51 5.51 0 0 0 7 3.41l73.81-24.42a5.5 5.5 0 0 0 3.57-6.95Zm-52.75-22.37v.09C63.27 118.85 36 106.2 44.3 90s24.11-4 24.11-4v-.07s2.96-19.73 20.17-13.78 6.28 33.97-6.33 48.24Z"/><path d="M175.22 43.69a5.7 5.7 0 0 0-6-5.37l-17.93.81 19.4 119.59a5.57 5.57 0 0 1-4.44 6.35l-68.92 12.79a5.74 5.74 0 0 0 5.14 2.66l73-3.3a5.69 5.69 0 0 0 5.49-5.89Z"/><path d="M158.63 156.35 138.57 32.68a5.28 5.28 0 0 0-6.19-4.38l-24.94 4.63 35.89 108.85h.1l2 6a5.51 5.51 0 0 1-3.58 6.91L77 176.12a5.2 5.2 0 0 0 3 .34l74.14-13.76a5.57 5.57 0 0 0 4.49-6.35Z"/></g></svg>